<svg width="185" height="54" fill="none" xmlns="http://www.w3.org/2000/svg"><path d="M178.238 1C181.394 1 184 3.573 184 6.688v40.624c0 3.115-2.606 5.688-5.762 5.688H6.762C3.606 53 1 50.427 1 47.312V6.688C1 3.572 3.606 1 6.762 1h171.476z" stroke="#fff"/><path d="M64.35 13.79c0 1.162-.278 2.178-.974 2.904-.835.87-1.809 1.306-3.062 1.306-1.252 0-2.226-.436-3.061-1.306C56.417 15.822 56 14.806 56 13.5c0-1.306.417-2.323 1.253-3.194C58.088 9.437 59.062 9 60.314 9c.557 0 1.114.145 1.67.435.557.29.975.581 1.253 1.017l-.696.725c-.556-.725-1.252-1.016-2.227-1.016-.835 0-1.67.29-2.226 1.016-.696.581-.975 1.452-.975 2.468s.279 1.887.975 2.468c.695.58 1.391 1.016 2.226 1.016.975 0 1.67-.29 2.366-1.016a2.456 2.456 0 00.696-1.742h-3.062V13.21h4.036v.58zm6.403-3.629h-3.758v2.758h3.48v1.016h-3.48v2.758h3.758v1.162H65.88v-8.71h4.872v1.016zm4.592 7.694h-1.113V10.16h-2.366V9.145h5.845v1.016h-2.366v7.694zm6.402 0v-8.71h1.114v8.71h-1.114zm5.846 0h-1.114V10.16h-2.366V9.145h5.707v1.016h-2.366v7.694h.139zm13.221-1.162c-.835.871-1.809 1.307-3.061 1.307-1.253 0-2.227-.436-3.062-1.306-.835-.871-1.253-1.887-1.253-3.194 0-1.306.418-2.323 1.253-3.194C95.526 9.437 96.5 9 97.753 9c1.252 0 2.226.435 3.061 1.306s1.253 1.888 1.253 3.194-.418 2.323-1.253 3.194zm-5.288-.725c.556.58 1.392 1.016 2.227 1.016s1.67-.29 2.226-1.016a3.58 3.58 0 00.975-2.468c0-1.016-.279-1.887-.975-2.468-.556-.58-1.391-1.016-2.226-1.016s-1.67.29-2.227 1.016a3.579 3.579 0 00-.974 2.468c0 1.016.278 1.887.974 2.468zm8.072 1.887v-8.71h1.253l4.036 6.823V9.145H110v8.71h-1.113l-4.315-7.113v7.113h-.974zM93.021 29.396c-3.29 0-5.896 2.45-5.896 5.852 0 3.267 2.606 5.853 5.896 5.853 3.291 0 5.896-2.45 5.896-5.852 0-3.539-2.605-5.853-5.896-5.853zm0 9.255c-1.782 0-3.29-1.497-3.29-3.539 0-2.041 1.508-3.538 3.29-3.538 1.783 0 3.291 1.36 3.291 3.538 0 2.042-1.508 3.539-3.29 3.539zM80.27 29.396c-3.29 0-5.895 2.45-5.895 5.852 0 3.267 2.605 5.853 5.895 5.853 3.291 0 5.896-2.45 5.896-5.852 0-3.539-2.605-5.853-5.896-5.853zm0 9.255c-1.782 0-3.29-1.497-3.29-3.539 0-2.041 1.508-3.538 3.29-3.538 1.783 0 3.291 1.36 3.291 3.538 0 2.042-1.508 3.539-3.29 3.539zm-15.22-7.485v2.45h5.897c-.138 1.36-.686 2.45-1.371 3.13-.823.816-2.194 1.769-4.525 1.769-3.703 0-6.445-2.858-6.445-6.533 0-3.674 2.88-6.532 6.445-6.532 1.92 0 3.428.816 4.525 1.769l1.782-1.77C69.849 24.09 67.929 23 65.187 23 60.25 23 56 27.083 56 31.982c0 4.9 4.25 8.983 9.187 8.983 2.742 0 4.662-.817 6.307-2.586 1.645-1.633 2.194-3.947 2.194-5.716 0-.545 0-1.089-.137-1.497H65.05zM127.3 33.07c-.548-1.36-1.919-3.675-4.936-3.675-3.016 0-5.485 2.314-5.485 5.852 0 3.267 2.469 5.853 5.759 5.853 2.605 0 4.251-1.633 4.799-2.586l-1.919-1.361c-.686.952-1.509 1.633-2.88 1.633s-2.194-.544-2.879-1.77l7.815-3.266-.274-.68zm-7.952 1.905c0-2.177 1.782-3.402 3.016-3.402.96 0 1.92.544 2.194 1.225l-5.21 2.177zm-6.445 5.58h2.605V23.544h-2.605v17.012zm-4.113-9.935c-.686-.68-1.783-1.36-3.154-1.36-2.879 0-5.622 2.585-5.622 5.851 0 3.267 2.605 5.716 5.622 5.716 1.371 0 2.468-.68 3.016-1.36h.138v.816c0 2.178-1.234 3.402-3.154 3.402-1.508 0-2.605-1.088-2.88-2.041l-2.193.953c.685 1.497 2.331 3.402 5.21 3.402 3.017 0 5.485-1.77 5.485-5.988V29.669h-2.468v.952zm-3.017 8.03c-1.782 0-3.291-1.497-3.291-3.539 0-2.041 1.509-3.538 3.291-3.538 1.783 0 3.154 1.497 3.154 3.538 0 2.042-1.371 3.539-3.154 3.539zm33.456-15.107h-6.17v17.012h2.605V34.16h3.565c2.88 0 5.622-2.042 5.622-5.308s-2.742-5.308-5.622-5.308zm.137 8.166h-3.702v-5.852h3.702c1.92 0 3.017 1.633 3.017 2.858-.137 1.497-1.234 2.994-3.017 2.994zm15.769-2.45c-1.92 0-3.839.817-4.525 2.586l2.331.953c.548-.953 1.371-1.225 2.331-1.225 1.371 0 2.605.817 2.742 2.177v.137c-.411-.273-1.508-.68-2.605-.68-2.468 0-4.936 1.36-4.936 3.81 0 2.313 2.057 3.81 4.25 3.81 1.783 0 2.606-.816 3.291-1.633h.137v1.361h2.468v-6.532c-.274-2.994-2.605-4.764-5.484-4.764zm-.274 9.39c-.823 0-2.057-.407-2.057-1.496 0-1.361 1.508-1.77 2.742-1.77 1.097 0 1.645.273 2.331.545-.274 1.633-1.645 2.722-3.016 2.722zm14.397-8.981l-2.88 7.349h-.137l-3.016-7.35h-2.743l4.525 10.344-2.605 5.716h2.605L172 29.668h-2.742zm-23.036 10.887h2.605V23.544h-2.605v17.012z" fill="#fff"/><path d="M14.248 10.146c-.412.41-.549 1.092-.549 1.912v30.168c0 .819.274 1.501.686 1.911l.137.136 17.003-16.927v-.273L14.248 10.146z" fill="url(#paint0_linear)"/><path d="M37.01 33.079l-5.622-5.597v-.41l5.622-5.596.137.136 6.718 3.822c1.92 1.092 1.92 2.867 0 3.959l-6.855 3.686z" fill="url(#paint1_linear)"/><path d="M37.147 32.942l-5.76-5.733-17.139 17.064c.686.682 1.646.682 2.88.136l20.019-11.467z" fill="url(#paint2_linear)"/><path d="M37.147 21.476l-20.02-11.33c-1.233-.683-2.193-.546-2.879.136l17.14 16.928 5.759-5.734z" fill="url(#paint3_linear)"/><path opacity=".2" d="M37.01 32.807L17.128 44c-1.097.683-2.057.546-2.743 0l-.137.137.137.136c.686.546 1.646.683 2.743 0L37.01 32.807z" fill="#000"/><path opacity=".2" d="M14.248 44c-.412-.41-.549-1.093-.549-1.912v.137c0 .819.274 1.502.686 1.911v-.137h-.137zm29.617-15.016l-6.856 3.822.137.136 6.72-3.822c.959-.546 1.37-1.229 1.37-1.911 0 .683-.548 1.229-1.37 1.775z" fill="#000"/><path opacity=".2" d="M17.127 10.282l26.738 15.153c.823.546 1.371 1.092 1.371 1.774 0-.682-.411-1.365-1.37-1.91L17.126 10.145c-1.92-1.092-3.428-.273-3.428 1.91v.137c0-2.047 1.508-3.003 3.428-1.91z" fill="#fff"/><defs><linearGradient id="paint0_linear" x1="29.879" y1="11.798" x2="6.969" y2="34.809" gradientUnits="userSpaceOnUse"><stop stop-color="#00A0FF"/><stop offset=".007" stop-color="#00A1FF"/><stop offset=".26" stop-color="#00BEFF"/><stop offset=".512" stop-color="#00D2FF"/><stop offset=".76" stop-color="#00DFFF"/><stop offset="1" stop-color="#00E3FF"/></linearGradient><linearGradient id="paint1_linear" x1="46.38" y1="27.21" x2="13.202" y2="27.21" gradientUnits="userSpaceOnUse"><stop stop-color="#FFE000"/><stop offset=".409" stop-color="#FFBD00"/><stop offset=".775" stop-color="orange"/><stop offset="1" stop-color="#FF9C00"/></linearGradient><linearGradient id="paint2_linear" x1="34.03" y1="30.343" x2="2.964" y2="61.548" gradientUnits="userSpaceOnUse"><stop stop-color="#FF3A44"/><stop offset="1" stop-color="#C31162"/></linearGradient><linearGradient id="paint3_linear" x1="9.993" y1=".148" x2="23.866" y2="14.083" gradientUnits="userSpaceOnUse"><stop stop-color="#32A071"/><stop offset=".069" stop-color="#2DA771"/><stop offset=".476" stop-color="#15CF74"/><stop offset=".801" stop-color="#06E775"/><stop offset="1" stop-color="#00F076"/></linearGradient></defs></svg>