<svg xmlns="http://www.w3.org/2000/svg" xmlns:xlink="http://www.w3.org/1999/xlink" width="500" zoomAndPan="magnify" viewBox="0 0 375 374.999991" height="500" preserveAspectRatio="xMidYMid meet" version="1.0"><defs><g/></defs><g fill="#033043" fill-opacity="1"><g transform="translate(22.76947, 353.373012)"><g><path d="M 4.65625 0 L 25.5625 -37.1875 L 46.4375 0 L 42.625 0 L 25.5625 -30.453125 L 8.453125 0 Z M 4.65625 0 "/></g></g></g><g fill="#033043" fill-opacity="1"><g transform="translate(81.197007, 353.373012)"><g><path d="M 23.25 -37.1875 C 25.8125 -37.1875 28.21875 -36.707031 30.46875 -35.75 C 32.71875 -34.789062 34.691406 -33.457031 36.390625 -31.75 C 38.097656 -30.039062 39.429688 -28.0625 40.390625 -25.8125 C 41.359375 -23.570312 41.84375 -21.164062 41.84375 -18.59375 C 41.84375 -16.019531 41.359375 -13.609375 40.390625 -11.359375 C 39.429688 -9.117188 38.097656 -7.144531 36.390625 -5.4375 C 34.691406 -3.726562 32.71875 -2.394531 30.46875 -1.4375 C 28.21875 -0.476562 25.8125 0 23.25 0 L 4.65625 0 L 4.65625 -3.109375 L 23.25 -3.109375 C 25.382812 -3.109375 27.378906 -3.507812 29.234375 -4.3125 C 31.097656 -5.125 32.738281 -6.242188 34.15625 -7.671875 C 35.582031 -9.097656 36.695312 -10.738281 37.5 -12.59375 C 38.3125 -14.457031 38.71875 -16.457031 38.71875 -18.59375 C 38.71875 -20.726562 38.3125 -22.722656 37.5 -24.578125 C 36.695312 -26.441406 35.582031 -28.085938 34.15625 -29.515625 C 32.738281 -30.941406 31.097656 -32.054688 29.234375 -32.859375 C 27.378906 -33.671875 25.382812 -34.078125 23.25 -34.078125 L 4.65625 -34.078125 L 4.65625 -37.1875 Z M 23.25 -37.1875 "/></g></g></g><g fill="#033043" fill-opacity="1"><g transform="translate(135.02301, 353.373012)"><g><path d="M 25.5625 -6.734375 L 42.671875 -37.1875 L 46.4375 -37.1875 L 25.5625 0 L 4.65625 -37.1875 L 8.453125 -37.1875 Z M 25.5625 -6.734375 "/></g></g></g><g fill="#033043" fill-opacity="1"><g transform="translate(193.450542, 353.373012)"><g><path d="M 4.65625 0 L 25.5625 -37.1875 L 46.4375 0 L 42.625 0 L 25.5625 -30.453125 L 8.453125 0 Z M 4.65625 0 "/></g></g></g><g fill="#033043" fill-opacity="1"><g transform="translate(251.878085, 353.373012)"><g><path d="M 41.84375 -27.09375 C 41.84375 -25.300781 41.40625 -23.660156 40.53125 -22.171875 C 39.664062 -20.679688 38.535156 -19.488281 37.140625 -18.59375 C 38.535156 -17.695312 39.664062 -16.503906 40.53125 -15.015625 C 41.40625 -13.523438 41.84375 -11.882812 41.84375 -10.09375 L 41.84375 0 L 38.71875 0 L 38.71875 -10.09375 C 38.71875 -11.363281 38.398438 -12.523438 37.765625 -13.578125 C 37.128906 -14.628906 36.289062 -15.460938 35.25 -16.078125 C 34.21875 -16.703125 33.050781 -17.015625 31.75 -17.015625 L 7.765625 -17.015625 L 7.765625 0 L 4.65625 0 L 4.65625 -20.171875 L 31.75 -20.171875 C 33.050781 -20.171875 34.21875 -20.476562 35.25 -21.09375 C 36.289062 -21.71875 37.128906 -22.554688 37.765625 -23.609375 C 38.398438 -24.660156 38.71875 -25.820312 38.71875 -27.09375 C 38.71875 -28.363281 38.398438 -29.523438 37.765625 -30.578125 C 37.128906 -31.640625 36.285156 -32.488281 35.234375 -33.125 C 34.179688 -33.757812 33.019531 -34.078125 31.75 -34.078125 L 4.65625 -34.078125 L 4.65625 -37.1875 L 31.75 -37.1875 C 33.601562 -37.1875 35.289062 -36.726562 36.8125 -35.8125 C 38.332031 -34.894531 39.550781 -33.675781 40.46875 -32.15625 C 41.382812 -30.644531 41.84375 -28.957031 41.84375 -27.09375 Z M 41.84375 -27.09375 "/></g></g></g><g fill="#033043" fill-opacity="1"><g transform="translate(305.704093, 353.373012)"><g><path d="M 23.25 -37.1875 C 25.8125 -37.1875 28.21875 -36.707031 30.46875 -35.75 C 32.71875 -34.789062 34.691406 -33.457031 36.390625 -31.75 C 38.097656 -30.039062 39.429688 -28.0625 40.390625 -25.8125 C 41.359375 -23.570312 41.84375 -21.164062 41.84375 -18.59375 C 41.84375 -16.019531 41.359375 -13.609375 40.390625 -11.359375 C 39.429688 -9.117188 38.097656 -7.144531 36.390625 -5.4375 C 34.691406 -3.726562 32.71875 -2.394531 30.46875 -1.4375 C 28.21875 -0.476562 25.8125 0 23.25 0 L 4.65625 0 L 4.65625 -3.109375 L 23.25 -3.109375 C 25.382812 -3.109375 27.378906 -3.507812 29.234375 -4.3125 C 31.097656 -5.125 32.738281 -6.242188 34.15625 -7.671875 C 35.582031 -9.097656 36.695312 -10.738281 37.5 -12.59375 C 38.3125 -14.457031 38.71875 -16.457031 38.71875 -18.59375 C 38.71875 -20.726562 38.3125 -22.722656 37.5 -24.578125 C 36.695312 -26.441406 35.582031 -28.085938 34.15625 -29.515625 C 32.738281 -30.941406 31.097656 -32.054688 29.234375 -32.859375 C 27.378906 -33.671875 25.382812 -34.078125 23.25 -34.078125 L 4.65625 -34.078125 L 4.65625 -37.1875 Z M 23.25 -37.1875 "/></g></g></g><path stroke-linecap="round" transform="matrix(0, 11.176416, -11.176416, 0, 329.379504, -7.5)" fill="none" stroke-linejoin="round" d="M 5.000065 15.999843 L 5.000065 8.999891 L 18.999969 8.999891 L 18.999969 1.99994 L 5.000065 1.99994 L 18.999969 15.999843 L 12.000017 15.999843 M 5.000065 15.999843 L 12.000017 23.000144 L 12.000017 15.999843 M 5.000065 15.999843 L 12.000017 15.999843 " stroke="#033043" stroke-width="1" stroke-opacity="1" stroke-miterlimit="4"/><path fill="#033043" d="M 200.394531 83.664062 L 192.273438 83.664062 L 208.515625 67.421875 L 192.273438 51.183594 L 200.394531 51.183594 L 216.636719 67.425781 Z M 200.949219 108.585938 L 192.832031 108.585938 L 225.3125 76.101562 L 229.371094 80.164062 Z M 200.949219 108.585938 " fill-opacity="1" fill-rule="nonzero"/><path stroke-linecap="round" transform="matrix(0, -11.176416, 11.176416, 0, 49.62861, 339.961266)" fill="none" stroke-linejoin="round" d="M 5.000095 16.000166 L 5.000095 8.999864 L 18.999998 8.999864 L 18.999998 1.999913 L 5.000095 1.999913 L 18.999998 16.000166 L 12.000046 16.000166 M 5.000095 16.000166 L 12.000046 23.000117 L 12.000046 16.000166 M 5.000095 16.000166 L 12.000046 16.000166 " stroke="#033043" stroke-width="1" stroke-opacity="1" stroke-miterlimit="4"/></svg>