<svg xmlns="http://www.w3.org/2000/svg" width="184.027" height="53.688"><path data-name="Path 15" d="M183.402 47.807a5.258 5.258 0 01-5.264 5.256H5.895a5.264 5.264 0 01-5.27-5.256V5.888A5.271 5.271 0 015.895.625h172.242a5.261 5.261 0 015.263 5.263z" fill="none" stroke="#fff" stroke-width="1.25"/><path data-name="Path 16" d="M40.763 26.555a7.956 7.956 0 013.79-6.676 8.152 8.152 0 00-6.419-3.47c-2.697-.284-5.319 1.616-6.697 1.616-1.4 0-3.521-1.588-5.8-1.541a8.547 8.547 0 00-7.2 4.387c-3.111 5.384-.791 13.3 2.19 17.648 1.491 2.133 3.233 4.511 5.513 4.427 2.231-.091 3.064-1.42 5.756-1.42 2.667 0 3.45 1.42 5.775 1.367 2.394-.037 3.9-2.141 5.34-4.292a17.594 17.594 0 002.447-4.976 7.7 7.7 0 01-4.695-7.07zM36.37 13.547a7.829 7.829 0 001.793-5.612 7.98 7.98 0 00-5.159 2.668 7.451 7.451 0 00-1.84 5.4 6.591 6.591 0 005.206-2.456z" fill="#fff"/><path data-name="Path 17" d="M73.075 42.64h-3.117l-1.708-5.365h-5.936l-1.627 5.365h-3.035l5.885-18.264h3.63zm-5.338-7.615l-1.546-4.77q-.245-.731-.921-3.441h-.055q-.272 1.165-.868 3.441l-1.518 4.77zm20.438.869a7.457 7.457 0 01-1.826 5.31 5.354 5.354 0 01-4.061 1.735 4.065 4.065 0 01-3.761-1.868v6.91h-2.929V33.799q0-2.11-.108-4.329h2.574l.163 2.087h.055a5.207 5.207 0 018.334-.517 7.281 7.281 0 011.557 4.853zm-2.982.107a5.428 5.428 0 00-.868-3.172 3 3 0 00-2.548-1.3 3.044 3.044 0 00-1.964.718 3.329 3.329 0 00-1.152 1.884 3.819 3.819 0 00-.136.891v2.2a3.523 3.523 0 00.881 2.426 2.926 2.926 0 002.29.99 3 3 0 002.574-1.274A5.6 5.6 0 0085.192 36zm18.133-.107a7.455 7.455 0 01-1.826 5.31 5.356 5.356 0 01-4.063 1.734 4.065 4.065 0 01-3.761-1.868v6.91h-2.927V33.799q0-2.11-.108-4.329h2.574l.163 2.087h.059a5.209 5.209 0 018.336-.517 7.289 7.289 0 011.552 4.853zm-2.983.107a5.431 5.431 0 00-.869-3.172 3 3 0 00-2.545-1.3 3.057 3.057 0 00-1.967.718 3.327 3.327 0 00-1.15 1.884 3.9 3.9 0 00-.137.891v2.2a3.534 3.534 0 00.88 2.426 2.932 2.932 0 002.293.99 3 3 0 002.574-1.274 5.606 5.606 0 00.915-3.364zm19.923 1.516a4.876 4.876 0 01-1.624 3.795 7.2 7.2 0 01-4.976 1.6 8.689 8.689 0 01-4.731-1.138l.677-2.439a8.142 8.142 0 004.228 1.139 3.989 3.989 0 002.574-.745 2.433 2.433 0 00.924-1.99 2.55 2.55 0 00-.761-1.871 7.048 7.048 0 00-2.52-1.408q-4.8-1.789-4.8-5.232a4.617 4.617 0 011.694-3.685 6.7 6.7 0 014.486-1.438 8.864 8.864 0 014.147.867l-.734 2.385a7.255 7.255 0 00-3.51-.84 3.569 3.569 0 00-2.422.759 2.172 2.172 0 00-.734 1.655 2.236 2.236 0 00.841 1.788 9.483 9.483 0 002.655 1.408 9 9 0 013.469 2.221 4.625 4.625 0 011.116 3.169zm9.7-5.851h-3.229v6.394q0 2.439 1.707 2.437a5.144 5.144 0 001.3-.136l.081 2.222a6.627 6.627 0 01-2.276.324 3.508 3.508 0 01-2.711-1.058 5.19 5.19 0 01-.976-3.551v-6.637h-1.922v-2.2h1.922v-2.408l2.875-.867v3.279h3.226zm14.527 4.281a7.223 7.223 0 01-1.736 4.986 6.185 6.185 0 01-4.824 2.005 5.9 5.9 0 01-4.622-1.921 7.007 7.007 0 01-1.721-4.85 7.165 7.165 0 011.775-5.012 6.154 6.154 0 014.785-1.952 6.021 6.021 0 014.661 1.924 6.913 6.913 0 011.683 4.82zm-3.034.067a5.9 5.9 0 00-.784-3.107 2.9 2.9 0 00-2.63-1.569 2.938 2.938 0 00-2.684 1.569 5.988 5.988 0 00-.785 3.162 5.873 5.873 0 00.785 3.109 3 3 0 005.289-.026 5.921 5.921 0 00.81-3.138zm12.551-3.971a5.09 5.09 0 00-.922-.081 2.762 2.762 0 00-2.386 1.167 4.393 4.393 0 00-.73 2.6v6.91h-2.927v-9.021q0-2.074-.085-4.146h2.549l.107 2.52h.081a4.517 4.517 0 011.463-2.088 3.542 3.542 0 012.116-.705 4.711 4.711 0 01.732.053zm13.09 3.389a6.864 6.864 0 01-.107 1.327h-8.781a3.821 3.821 0 001.274 2.984 4.357 4.357 0 002.872.919 9.715 9.715 0 003.553-.622l.459 2.03a10.992 10.992 0 01-4.417.814 6.4 6.4 0 01-4.813-1.8 6.657 6.657 0 01-1.747-4.837 7.542 7.542 0 011.628-4.957 5.61 5.61 0 014.606-2.112 4.911 4.911 0 014.312 2.112 7.113 7.113 0 011.162 4.142zm-2.791-.759a3.963 3.963 0 00-.572-2.248 2.557 2.557 0 00-2.331-1.222 2.775 2.775 0 00-2.33 1.193 4.371 4.371 0 00-.866 2.276z" fill="#fff"/><path data-name="Path 18" d="M61.467 17.918a18.706 18.706 0 01-2.1-.107v-8.83a15.937 15.937 0 012.47-.187c3.356 0 4.9 1.651 4.9 4.342.006 3.105-1.82 4.782-5.27 4.782zm.491-7.992a5.871 5.871 0 00-1.159.093v6.713a7.608 7.608 0 00.972.04c2.2 0 3.451-1.252 3.451-3.6a2.929 2.929 0 00-3.263-3.247zm9.6 8.059a3.081 3.081 0 01-3.118-3.33 3.153 3.153 0 013.225-3.423 3.057 3.057 0 013.118 3.317 3.171 3.171 0 01-3.223 3.437zm.055-5.7c-1.039 0-1.705.972-1.705 2.33 0 1.333.679 2.3 1.691 2.3s1.691-1.039 1.691-2.332c.003-1.313-.663-2.298-1.675-2.298zm13.957-.918l-2.023 6.472h-1.319l-.839-2.814a21.332 21.332 0 01-.52-2.09h-.032a14.019 14.019 0 01-.519 2.09l-.892 2.811h-1.329l-1.906-6.472h1.479l.733 3.077q.26 1.1.439 2.078h.027a21.309 21.309 0 01.533-2.064l.92-3.089h1.172l.88 3.024c.213.733.386 1.452.52 2.131h.043a18.647 18.647 0 01.439-2.131l.787-3.024zm7.454 6.472h-1.436v-3.714c0-1.145-.439-1.718-1.306-1.718a1.494 1.494 0 00-1.439 1.585v3.85h-1.438v-4.625c0-.572-.014-1.186-.054-1.851h1.266l.067 1h.04a2.326 2.326 0 012.052-1.131c1.359 0 2.251 1.039 2.251 2.73zm3.967 0h-1.44V8.396h1.44zm5.245.147a3.082 3.082 0 01-3.117-3.33 3.152 3.152 0 013.223-3.423 3.056 3.056 0 013.118 3.317 3.171 3.171 0 01-3.223 3.436zm.054-5.7c-1.039 0-1.705.972-1.705 2.33 0 1.333.681 2.3 1.69 2.3s1.691-1.039 1.691-2.332c.004-1.314-.66-2.299-1.673-2.299zm8.842 5.554l-.1-.745h-.039a2.209 2.209 0 01-1.893.892 1.882 1.882 0 01-1.983-1.905c0-1.6 1.385-2.424 3.783-2.424v-.119c0-.852-.452-1.279-1.344-1.279a3.03 3.03 0 00-1.691.48l-.293-.946a4.142 4.142 0 012.223-.56c1.691 0 2.545.892 2.545 2.678v2.383a9.844 9.844 0 00.097 1.545zm-.2-3.224c-1.6 0-2.4.387-2.4 1.305a.917.917 0 00.987 1.011 1.377 1.377 0 001.412-1.318zm8.388 3.224l-.067-1.039h-.04a2.17 2.17 0 01-2.078 1.186c-1.561 0-2.717-1.372-2.717-3.3 0-2.024 1.2-3.45 2.835-3.45a1.946 1.946 0 011.826.88h.028V8.396h1.441v7.7c0 .626.015 1.212.053 1.744zm-.213-3.809a1.565 1.565 0 00-1.515-1.679c-1.067 0-1.719.946-1.719 2.277 0 1.305.677 2.2 1.69 2.2a1.615 1.615 0 001.544-1.718zm10.571 3.955a3.081 3.081 0 01-3.116-3.33 3.152 3.152 0 013.223-3.423 3.056 3.056 0 013.118 3.317 3.171 3.171 0 01-3.22 3.436zm.054-5.7c-1.038 0-1.7.972-1.7 2.33 0 1.333.679 2.3 1.69 2.3s1.691-1.039 1.691-2.332c.004-1.314-.662-2.299-1.676-2.299zm10.908 5.554h-1.44v-3.715c0-1.145-.44-1.718-1.306-1.718a1.493 1.493 0 00-1.437 1.585v3.85h-1.44v-4.625c0-.572-.014-1.186-.054-1.851h1.274l.067 1h.04a2.325 2.325 0 012.051-1.132c1.359 0 2.253 1.039 2.253 2.73zm9.679-5.394h-1.582v3.143c0 .8.277 1.2.837 1.2a2.827 2.827 0 00.638-.067l.04 1.092a3.19 3.19 0 01-1.116.161c-1.134 0-1.812-.626-1.812-2.265v-3.265h-.945v-1.079h.945v-1.185l1.413-.427v1.611h1.582zm7.617 5.394h-1.438v-3.69c0-1.158-.438-1.744-1.3-1.744a1.411 1.411 0 00-1.44 1.532v3.9h-1.438V8.396h1.438v3.889h.029a2.182 2.182 0 011.946-1.053c1.37 0 2.208 1.065 2.208 2.757zm7.8-2.89h-4.318a1.858 1.858 0 002.04 1.917 4.862 4.862 0 001.745-.306l.224 1a5.406 5.406 0 01-2.172.4 3 3 0 01-3.223-3.262c0-1.985 1.227-3.476 3.061-3.476 1.654 0 2.692 1.226 2.692 3.077a2.8 2.8 0 01-.041.648zm-1.32-1.025c0-1-.5-1.7-1.423-1.7a1.706 1.706 0 00-1.573 1.7z" fill="#fff"/></svg>