<?xml version="1.0" standalone="no"?>
<!DOCTYPE svg PUBLIC "-//W3C//DTD SVG 20010904//EN"
 "http://www.w3.org/TR/2001/REC-SVG-20010904/DTD/svg10.dtd">
<svg version="1.0" xmlns="http://www.w3.org/2000/svg"
 width="320.000000pt" height="320.000000pt" viewBox="0 0 320.000000 320.000000"
 preserveAspectRatio="xMidYMid meet">

<g transform="translate(0.000000,320.000000) scale(0.100000,-0.100000)"
fill="#000000" stroke="none">
<path d="M1445 3007 c-33 -18 -92 -63 -131 -102 -107 -105 -103 -71 -94 -690
3 -286 2 -539 -2 -561 -17 -80 -47 -92 -433 -164 -195 -36 -213 -41 -240 -61
-44 -36 -72 -116 -90 -258 l-6 -54 53 6 c29 4 152 31 273 61 204 50 383 86
427 86 17 0 18 -12 18 -160 0 -188 -8 -217 -65 -245 -21 -9 -86 -26 -144 -36
-240 -41 -581 -117 -609 -135 -37 -24 -72 -113 -85 -213 -6 -50 -9 -93 -6 -96
13 -13 835 164 909 196 91 39 233 215 276 343 13 38 16 73 12 168 -6 138 3
203 33 235 25 26 85 47 179 63 36 6 75 14 88 17 l22 5 0 -312 0 -313 66 7 c85
9 211 35 442 92 103 25 230 53 282 60 122 19 178 46 208 102 21 38 66 241 56
251 -14 15 -350 -47 -579 -106 -77 -19 -150 -38 -163 -41 l-23 -4 3 163 3 163
80 11 c44 7 161 30 260 53 99 23 206 46 238 52 63 13 108 44 133 93 16 30 58
237 50 244 -8 9 -165 -19 -326 -58 -91 -22 -219 -50 -285 -63 -66 -13 -127
-26 -135 -28 -13 -3 -15 64 -18 550 -1 303 -5 552 -9 552 -23 0 -147 -83 -193
-129 -96 -97 -94 -82 -89 -486 6 -548 8 -530 -64 -567 -41 -21 -165 -47 -224
-48 l-33 0 -2 694 -3 695 -60 -32z"/>
<path d="M2755 660 c-66 -10 -228 -43 -360 -73 -132 -30 -266 -58 -299 -62
-130 -15 -187 -48 -220 -127 -17 -40 -50 -227 -42 -235 10 -10 264 38 481 91
121 29 263 61 315 70 127 23 168 46 202 116 15 30 32 87 38 125 6 39 14 80 17
93 3 12 1 22 -3 21 -5 0 -63 -9 -129 -19z"/>
</g>
</svg>
